<?xml version="1.0" encoding="UTF-8" standalone="no"?>
<!-- Created with Inkscape (http://www.inkscape.org/) -->

<svg
   width="237.77887"
   height="237.77887"
   viewBox="0 0 62.912326 62.912326"
   version="1.1"
   id="svg5"
   inkscape:version="1.4 (e7c3feb100, 2024-10-09)"
   sodipodi:docname="forgefire-gr.svg"
   inkscape:export-filename="/home/bluegnome/Documents/ForgeFire/Logo/logo_forge_fire.png"
   inkscape:export-xdpi="403.73645"
   inkscape:export-ydpi="403.73645"
   xmlns:inkscape="http://www.inkscape.org/namespaces/inkscape"
   xmlns:sodipodi="http://sodipodi.sourceforge.net/DTD/sodipodi-0.dtd"
   xmlns="http://www.w3.org/2000/svg"
   xmlns:svg="http://www.w3.org/2000/svg">
  <sodipodi:namedview
     id="namedview7"
     pagecolor="#ffffff"
     bordercolor="#666666"
     borderopacity="1.0"
     inkscape:pageshadow="2"
     inkscape:pageopacity="0.0"
     inkscape:pagecheckerboard="true"
     inkscape:document-units="px"
     showgrid="false"
     inkscape:zoom="2.8284271"
     inkscape:cx="138.94648"
     inkscape:cy="104.6518"
     inkscape:window-width="1920"
     inkscape:window-height="1043"
     inkscape:window-x="0"
     inkscape:window-y="0"
     inkscape:window-maximized="1"
     inkscape:current-layer="g1266"
     units="px"
     height="237.77887px"
     inkscape:showpageshadow="2"
     inkscape:deskcolor="#d1d1d1" />
  <defs
     id="defs2" />
  <g
     inkscape:label="Layer 1"
     inkscape:groupmode="layer"
     id="layer1"
     style="display:inline"
     transform="translate(-228.61757,-100.70703)">
    <g
       id="g1266"
       transform="translate(8.2026266)">
      <path
         id="path4147"
         style="fill:#000000;stroke:none;stroke-width:0.517268px;stroke-linecap:butt;stroke-linejoin:miter;stroke-opacity:1;fill-opacity:1"
         d="m 253.78758,106.53707 c 8.07526,7.96483 2.01296,11.66403 2.26289,21.35281 -8.00616,-11.2201 1.49531,-6.40152 -2.26289,-21.35281 z"
         sodipodi:nodetypes="ccc" />
      <path
         style="fill:#000000;stroke:none;stroke-width:0.517268px;stroke-linecap:butt;stroke-linejoin:miter;stroke-opacity:1;fill-opacity:1"
         d="m 256.05047,127.88988 c 2.52468,2.28375 10.10859,-12.597 -2.2851,-21.35012 5.87397,11.30555 4.80608,15.77143 -12.13826,17.67281 z"
         id="path4145"
         sodipodi:nodetypes="cccc" />
      <path
         id="path5057"
         style="fill:#000000;stroke:none;stroke-width:0.732533px;stroke-linecap:butt;stroke-linejoin:miter;stroke-opacity:1;fill-opacity:1"
         d="m 948.46094,380.625 c -42.87175,17.9187 -29.16474,89.34161 -35.22461,88.83984 0,0 0.40814,-27.18639 -33.15625,-38.64648 5.01717,52.12717 -15.37436,68.27502 -15.98438,101.49219 h -0.0176 c 0.004,0.11716 0.006,0.23439 0.01,0.35156 -0.004,0.38721 -0.0215,0.76431 -0.0215,1.15625 h 0.0605 c 0.53273,30.20946 17.18985,57.93469 43.89063,73.05469 0.85023,0.48091 1.70618,0.9476 2.56836,1.39843 0.1055,-2.05278 0.26268,-4.25156 0.60547,-6.37304 l 15.32031,-18.35352 c 0.16227,-0.18359 0.32347,-0.37557 0.48242,-0.57812 v -17.60547 c -0.88365,-4.45811 -13.28361,-7.49991 -16.7793,-7.6836 h -14.25781 c -0.0177,-2.2e-4 -0.0298,3.1e-4 -0.0449,0 h -0.14649 l -0.008,-0.0117 c -4.03007,-0.11093 -8.04158,-1.54762 -11.64843,-4.31446 -7.29041,-5.61192 -11.88337,-15.84061 -12.14454,-27.04687 h 38.24805 v -0.0156 c 0,-2.78574 1.71617,-5.13476 5.71094,-5.13476 l 113.93949,0.002 v 6.24219 c -13.2998,13.12002 -51.08127,8.55025 -53.18363,41.41797 v 14.15039 c 0.16357,0.20844 0.32901,0.40535 0.49609,0.59375 l 15.3086,18.33789 c 0.34904,2.16105 0.50877,4.40575 0.61328,6.49023 0.94034,-0.48819 1.87653,-0.99174 2.80273,-1.51562 26.32323,-14.91069 42.90893,-42.09256 43.85163,-71.86719 h 0.064 c 0,-0.48699 -0.01,-0.9717 -0.016,-1.45703 0.015,-0.41265 0.03,-0.82545 0.041,-1.23828 h -0.062 c -1.2714,-48.75995 -36.3601,-89.266 -19.9863,-121.58399 -30.90411,9.97807 -44.70945,38.35719 -45.67583,53.72656 -40.82922,-33.08953 -52.91712,-64.18316 -25.65625,-83.82812 z m 3.36133,223.64258 c -9.03746,0.10178 -19.17717,3.16371 -24.65039,10.60156 h -0.14258 c 16.26335,4.71301 33.59406,4.71296 49.85742,0 h -0.38281 c -5.47325,-7.43785 -15.64423,-10.49989 -24.68164,-10.60156 z"
         transform="scale(0.26458333)" />
      <path
         id="path3943"
         style="fill:#000000;stroke:none;stroke-width:0.999999px;stroke-linecap:butt;stroke-linejoin:miter;stroke-opacity:1;fill-opacity:1"
         d="m 948.46094,380.625 c -46.65445,15.79729 -29.31963,88.08696 -35.22461,88.83984 0,0 0.40814,-27.18639 -33.15625,-38.64648 30.79718,28.79525 16.60214,60.71247 10.20898,95.48633 h 19.92383 v -0.0156 c 0,-2.78574 1.71617,-5.13476 5.71094,-5.13476 l 113.93947,0.002 v 6.24219 c -13.2998,13.12002 -51.08125,8.55025 -53.18361,41.41797 v 14.15039 c 0.16357,0.20844 0.32901,0.40535 0.49609,0.59375 l 15.3086,18.33789 c 0.34883,2.15973 0.50875,4.40288 0.61328,6.48633 0.94091,-0.48744 1.87609,-0.98865 2.80273,-1.51172 26.32321,-14.91066 42.90881,-42.09253 43.85161,-71.86719 h 0.064 c 0,-0.48699 -0.012,-0.9717 -0.016,-1.45703 0.015,-0.41269 0.03,-0.82545 0.041,-1.23828 h -0.062 c -1.2714,-48.75995 -36.3602,-89.266 -19.9863,-121.58399 -30.90413,9.97807 -49.05698,43.6076 -45.67581,53.72656 -20.32392,-23.42936 -40.01861,-49.79718 -25.65625,-83.82812 z m -60.58399,175.05469 c 0.8921,16.85872 6.59669,34.3192 22.40039,52.35547 0.10337,0.0547 0.20897,0.10397 0.3125,0.1582 0.1059,-2.03149 0.26306,-4.19991 0.60157,-6.29492 l 15.32031,-18.35352 c 0.16227,-0.18359 0.32347,-0.37557 0.48242,-0.57812 v -17.60547 c -0.88365,-4.45811 -13.28361,-7.49991 -16.7793,-7.6836 h -14.25781 c -0.0177,-2.2e-4 -0.0298,3.1e-4 -0.0449,0 h -0.14649 l -0.008,-0.0117 c -2.67384,-0.0736 -5.33612,-0.74427 -7.88086,-1.98633 z m 63.94532,48.58789 c -9.02927,0.10169 -19.15805,3.15885 -24.63477,10.58203 16.20335,4.67796 33.43992,4.67602 49.61523,0.0195 h -0.29882 c -5.47325,-7.43785 -15.64423,-10.49989 -24.68164,-10.60156 z"
         transform="scale(0.26458333)" />
      <path
         id="path8447"
         style="fill:#000000;stroke:none;stroke-width:0.999999px;stroke-linecap:butt;stroke-linejoin:miter;stroke-opacity:1;fill-opacity:1"
         d="m 1019.793,410.72656 c -34.41082,7.15879 -62.35373,59.05483 -31.26611,71.10411 -17.03916,-15.67744 13.58691,-57.23589 31.26611,-71.10411 z"
         sodipodi:nodetypes="ccc"
         transform="scale(0.26458333)" />
      <path
         id="path9909"
         style="fill:#000000;stroke:none;stroke-width:0.999999px;stroke-linecap:butt;stroke-linejoin:miter;stroke-opacity:1;fill-opacity:1"
         d="m 948.46094,380.625 c -37.38336,12.27894 -37.44922,67.74262 -37.44922,77.89062 0,24.30553 -20.38709,46.42995 -31.7832,67.78907 h 30.98437 v -0.0156 c 0,-2.78574 1.71617,-5.13476 5.71094,-5.13476 H 959.875 c 3.13563,-55.67815 -59.10981,-83.89828 -11.41406,-140.5293 z m -74.48047,157.61328 c -5.25872,15.90052 -2.32276,31.51757 21.44336,47.45117 3.72142,18.52822 -0.45932,8.83893 14.85351,22.34571 0.11875,-0.11996 0.22552,-0.2357 0.34375,-0.35547 0.10807,-1.88661 0.25994,-3.86038 0.57032,-5.78125 l 15.32031,-18.35352 c 0.16227,-0.18359 0.32347,-0.37557 0.48242,-0.57812 v -17.60547 c -0.88365,-4.45811 -13.28361,-7.49991 -16.7793,-7.6836 h -14.25781 c -0.0177,-2.2e-4 -0.0298,3.1e-4 -0.0449,0 h -0.14649 l -0.008,-0.0117 c -4.03007,-0.11093 -8.04158,-1.54762 -11.64843,-4.31446 -4.57288,-3.52005 -8.08191,-8.8585 -10.12891,-15.11328 z"
         transform="scale(0.26458333)"
         sodipodi:nodetypes="csccsscsccccccccccccccccc" />
    </g>
  </g>
  <g
     inkscape:groupmode="layer"
     id="layer2"
     inkscape:label="Layer 2"
     transform="translate(-228.61757,-100.70703)" />
</svg>
