<?xml version="1.0" encoding="UTF-8" standalone="no"?>
<svg
   id="Layer_1"
   data-name="Layer 1"
   width="251.64mm"
   height="51.48mm"
   viewBox="0 0 713.3 145.94"
   version="1.1"
   sodipodi:docname="prodrive-gr.svg"
   inkscape:version="1.4 (e7c3feb100, 2024-10-09)"
   xmlns:inkscape="http://www.inkscape.org/namespaces/inkscape"
   xmlns:sodipodi="http://sodipodi.sourceforge.net/DTD/sodipodi-0.dtd"
   xmlns="http://www.w3.org/2000/svg"
   xmlns:svg="http://www.w3.org/2000/svg"
   xmlns:rdf="http://www.w3.org/1999/02/22-rdf-syntax-ns#"
   xmlns:cc="http://creativecommons.org/ns#"
   xmlns:dc="http://purl.org/dc/elements/1.1/">
  <defs
     id="defs18" />
  <sodipodi:namedview
     id="namedview18"
     pagecolor="#ffffff"
     bordercolor="#000000"
     borderopacity="0.25"
     inkscape:showpageshadow="2"
     inkscape:pageopacity="0.0"
     inkscape:pagecheckerboard="0"
     inkscape:deskcolor="#d1d1d1"
     inkscape:document-units="mm"
     inkscape:zoom="1.4257471"
     inkscape:cx="475.54016"
     inkscape:cy="97.492746"
     inkscape:window-width="1920"
     inkscape:window-height="1043"
     inkscape:window-x="0"
     inkscape:window-y="0"
     inkscape:window-maximized="1"
     inkscape:current-layer="g4" />
  <title
     id="title1">PT_logo2020_Black CMYK</title>
  <g
     id="g18">
    <path
       d="M351,28.05c-7-7.17-16.26-10.77-27.32-10.75a44.48,44.48,0,0,0-33.4,14.46c-9.17,9.63-13.74,22.3-13.73,37.67a42,42,0,0,0,4.55,19.18,33.14,33.14,0,0,0,13.46,14.16,38.85,38.85,0,0,0,19.59,5h0a44.85,44.85,0,0,0,19.32-4.3,46.57,46.57,0,0,0,12.88-9.15,50.52,50.52,0,0,0,9.94-14.07,53.31,53.31,0,0,0,5.26-23.58C361.62,44.89,358.1,35.22,351,28.05Zm-36,67.46a24.81,24.81,0,0,1-12.39-3.33,21.31,21.31,0,0,1-8.8-9.14,28.61,28.61,0,0,1-3-13c0-12.49,3.36-22.22,10-29.48s14.21-10.86,22.8-10.88a22.24,22.24,0,0,1,16.74,7.06c4.5,4.71,6.79,11,6.8,19.15a47.6,47.6,0,0,1-2.66,15.38,39.12,39.12,0,0,1-7.2,13.09A34,34,0,0,1,327,92.59,25.73,25.73,0,0,1,315.06,95.51Z"
       transform="translate(-7.45 -17.3)"
       fill="#1d1d1b"
       id="path1"
       style="fill:#000000;fill-opacity:1" />
    <g
       id="g3">
      <path
         d="M394.31,106.37A65.76,65.76,0,0,0,408.82,105a42.26,42.26,0,0,0,13.62-5.54,47.29,47.29,0,0,0,11-10.31A55.08,55.08,0,0,0,441.9,74a54.28,54.28,0,0,0,3.24-19.15,45.8,45.8,0,0,0-2.62-15.94,30.39,30.39,0,0,0-7.91-12,29.08,29.08,0,0,0-12.7-6.73c-3.49-.93-8.35-1.37-14.66-1.37h-27.2l-18.63,87.63Zm11.71-75c5.8,0,10,.45,12.55,1.26a15.8,15.8,0,0,1,8.52,6.72c2.2,3.31,3.41,8.3,3.4,15a46,46,0,0,1-2.58,16A45.53,45.53,0,0,1,421,82.79a28.64,28.64,0,0,1-7.21,6.54,22.9,22.9,0,0,1-7.2,2.87,71,71,0,0,1-16.09,1.64H378.65L392,31.33Z"
         transform="translate(-7.45 -17.3)"
         fill="#1d1d1b"
         id="path2"
         style="fill:#000000;fill-opacity:1" />
      <path
         d="M460.39,106.37l8-37.6h12.22c4.49,0,7.68.47,9.35,1.23s3.51,2.41,5.38,5.17a71.91,71.91,0,0,1,7.5,14.5l6.54,16.7h16.09L518,88.4a76.66,76.66,0,0,0-8.88-15.73,28.54,28.54,0,0,0-4.71-4.9c8.71-1.55,15.29-4.4,19.68-8.73a24.61,24.61,0,0,0,7.32-18.2c0-5.14-1.1-9.53-3.38-13.05a17.26,17.26,0,0,0-9.47-7.22c-4-1.25-9.46-1.83-16.69-1.83H464.54l-18.7,87.63Zm55-58.27a15.07,15.07,0,0,1-5.91,5.54,26.89,26.89,0,0,1-10.15,2.72c-2.11.18-6.92.28-14.27.28H471L476.45,31h26.94c4.34,0,7.41.35,8.92.9A7.17,7.17,0,0,1,516,35a10.48,10.48,0,0,1,1.48,5.66A14.06,14.06,0,0,1,515.42,48.1Z"
         transform="translate(-7.45 -17.3)"
         fill="#1d1d1b"
         id="path3"
         style="fill:#000000;fill-opacity:1" />
    </g>
    <g
       id="g4">
      <polygon
         points="538.3 89.08 556.93 1.45 542.45 1.45 523.76 89.08 538.3 89.08"
         fill="#1d1d1b"
         id="polygon3"
         style="fill:#000000;fill-opacity:1" />
      <path
         d="M601.49,106.37l49-87.63H635.18L604,75q-2.78,5.06-6.72,12.88-1-7.29-3-17.43L584,18.74H569.89l17.17,87.63Z"
         transform="translate(-7.45 -17.3)"
         fill="#1d1d1b"
         id="path4"
         style="fill:#000000;fill-opacity:1" />
      <polygon
         points="699.25 89.08 701.89 76.54 647.58 76.54 652.76 51.93 694.18 51.93 696.87 39.34 655.45 39.34 660.9 14.04 710.64 14.04 713.3 1.44 649.04 1.44 630.35 89.08 699.25 89.08"
         fill="#1d1d1b"
         id="polygon4"
         style="fill:#000000;fill-opacity:1" />
    </g>
    <polygon
       points="28.06 75.77 35.67 39.5 87.08 39.5 72.34 108.3 306.39 108.3 303.6 121.5 56.76 121.5 71.5 52.7 45.84 52.7 38.19 88.86 0 88.86 2.83 75.77 28.06 75.77"
       fill="#1d1d1b"
       fill-rule="evenodd"
       id="polygon5"
       style="fill:#000000;fill-opacity:1" />
    <path
       d="M201.29,106.37l8-37.6h12.22c4.49,0,7.68.47,9.35,1.23s3.51,2.41,5.38,5.17a72.43,72.43,0,0,1,7.5,14.5l6.54,16.7h16.09L259,88.4a76.2,76.2,0,0,0-8.88-15.73,28.54,28.54,0,0,0-4.71-4.9c8.7-1.55,15.29-4.4,19.68-8.73a24.66,24.66,0,0,0,7.32-18.21,23.61,23.61,0,0,0-3.38-13,17.26,17.26,0,0,0-9.47-7.22c-3.95-1.25-9.46-1.83-16.69-1.83H205.45l-18.7,87.63Zm55-58.26a15,15,0,0,1-5.91,5.53,26.9,26.9,0,0,1-10.15,2.71c-2.11.19-6.93.29-14.28.29H211.87L217.36,31h26.93c4.35,0,7.41.35,8.92.9A7.1,7.1,0,0,1,256.93,35a10.48,10.48,0,0,1,1.48,5.66A14.12,14.12,0,0,1,256.33,48.11Z"
       transform="translate(-7.45 -17.3)"
       fill="#1d1d1b"
       id="path5"
       style="fill:#000000;fill-opacity:1" />
    <g
       id="g17">
      <path
         d="M338.14,131.33l-6.62,31.17h-6.39l6.62-31.17H321.33l1.22-5.74h27.24l-1.22,5.74Z"
         transform="translate(-7.45 -17.3)"
         fill="#1d1d1b"
         id="path6"
         style="fill:#000000;fill-opacity:1" />
      <path
         d="M348,162.5l7.84-36.91h18.45L373,131.7H360.93L359,141h10.47l-1.27,6H357.68l-2,9.51h13.55l-1.28,6Z"
         transform="translate(-7.45 -17.3)"
         fill="#1d1d1b"
         id="path7"
         style="fill:#000000;fill-opacity:1" />
      <path
         d="M400.89,160.67a23.87,23.87,0,0,1-11.11,2.56c-10.18,0-14.52-7.83-12.24-18.58,2.51-11.8,11-19.69,21.91-19.69,3,0,6,.37,8.19,2.14L406.22,134a10.19,10.19,0,0,0-7.78-3.13c-7.4,0-12.15,5.85-13.75,13.37-1.54,7.25.86,12.89,7.93,12.89a18.74,18.74,0,0,0,10.63-3.23C402.38,156.13,401.8,158.43,400.89,160.67Z"
         transform="translate(-7.45 -17.3)"
         fill="#1d1d1b"
         id="path8"
         style="fill:#000000;fill-opacity:1" />
      <path
         d="M431.87,162.5l3.36-15.82H419.48l-3.36,15.82h-6.39l7.84-36.91H424l-3.18,15h15.7l3.19-15h6.44l-7.85,36.91Z"
         transform="translate(-7.45 -17.3)"
         fill="#1d1d1b"
         id="path9"
         style="fill:#000000;fill-opacity:1" />
      <path
         d="M472.85,162.5l-12.41-25.22-5.36,25.22h-5.82l7.85-36.91h6.1L475,149.4,480,125.59h5.86L478,162.5Z"
         transform="translate(-7.45 -17.3)"
         fill="#1d1d1b"
         id="path10"
         style="fill:#000000;fill-opacity:1" />
      <path
         d="M503.55,163.18c-10.67,0-15.29-7.41-12.86-18.85,2.47-11.59,10.76-19.42,21.57-19.42s15.28,7.41,12.85,18.85C522.65,155.35,514.36,163.18,503.55,163.18Zm7.14-32.27c-7.1,0-11.15,6.37-12.6,13.21-1.42,6.69.15,13,7,13s11.09-6.26,12.53-13S517.71,130.91,510.69,130.91Z"
         transform="translate(-7.45 -17.3)"
         fill="#1d1d1b"
         id="path11"
         style="fill:#000000;fill-opacity:1" />
      <path
         d="M528.77,162.5l7.85-36.91H543l-6.57,30.91h13.64l-1.28,6Z"
         transform="translate(-7.45 -17.3)"
         fill="#1d1d1b"
         id="path12"
         style="fill:#000000;fill-opacity:1" />
      <path
         d="M568.54,163.18c-10.66,0-15.28-7.41-12.85-18.85,2.46-11.59,10.75-19.42,21.56-19.42s15.29,7.41,12.86,18.85C587.64,155.35,579.35,163.18,568.54,163.18Zm7.15-32.27c-7.11,0-11.16,6.37-12.61,13.21-1.42,6.69.16,13,7,13,7,0,11.09-6.26,12.53-13S582.7,130.91,575.69,130.91Z"
         transform="translate(-7.45 -17.3)"
         fill="#1d1d1b"
         id="path13"
         style="fill:#000000;fill-opacity:1" />
      <path
         d="M609.52,163.18c-10.72,0-16.13-6.84-13.61-18.69s12-19.48,22.73-19.48c2.5,0,5.78.37,7.75,1.73l-.88,6.84a11.93,11.93,0,0,0-7.83-2.72c-7.64,0-13,5.54-14.7,13.58s1,12.94,8.63,12.94a14.22,14.22,0,0,0,4.39-.52l1.51-7.1h-5.57l1.28-6.06h12l-3.7,17.44A31.45,31.45,0,0,1,609.52,163.18Z"
         transform="translate(-7.45 -17.3)"
         fill="#1d1d1b"
         id="path14"
         style="fill:#000000;fill-opacity:1" />
      <path
         d="M631.14,162.5,639,125.59h6.39l-7.84,36.91Z"
         transform="translate(-7.45 -17.3)"
         fill="#1d1d1b"
         id="path15"
         style="fill:#000000;fill-opacity:1" />
      <path
         d="M648.58,162.5l7.84-36.91h18.45l-1.3,6.11H661.51l-2,9.34H670l-1.27,6H658.26l-2,9.51h13.55l-1.28,6Z"
         transform="translate(-7.45 -17.3)"
         fill="#1d1d1b"
         id="path16"
         style="fill:#000000;fill-opacity:1" />
      <path
         d="m 683.53,163 c -2.93,0 -6.46,-0.57 -8.44,-2.56 l 1.88,-6.78 c 1.79176,2.44512 4.64873,3.88105 7.68,3.86 2.93,0 5.55,-1.25 6.31,-4.8 1.71,-8.09 -14.06,-3.71 -11.27,-16.81 1.62,-7.63 7.64,-10.86 14,-10.86 2.84,0 5.52,0.47 7.62,2.14 l -2.09,6.42 c -1.67106,-2.01385 -4.17404,-3.14922 -6.79,-3.08 -2.71147,-0.19293 -5.14227,1.6634 -5.67,4.33 -1.68,7.89 14.29,3.5 11.47,16.76 -1.65,7.85 -8.07,11.38 -14.7,11.38 z"
         transform="translate(-7.45,-17.3)"
         fill="#1d1d1b"
         id="path17"
         sodipodi:nodetypes="scccccscccccs"
         style="fill:#000000;fill-opacity:1" />
    </g>
    <path
       d="M122,106.3l7.29-34.37h20.41A76.46,76.46,0,0,0,166.82,70a31.68,31.68,0,0,0,7.65-2.79,27.62,27.62,0,0,0,7.12-5.61,29.78,29.78,0,0,0,5.8-9.42,30.08,30.08,0,0,0,2.28-11.23,23.43,23.43,0,0,0-3.27-12.23A18.9,18.9,0,0,0,178,20.9c-3.45-1.54-8.29-2.23-14.63-2.23h-37.2L107.48,106.3Zm53.35-65.07a16.81,16.81,0,0,1-2.88,9.36,17.52,17.52,0,0,1-7.67,6.59c-3.09,1.42-8.36,2.22-15.63,2.22H132l6.08-28.6H159c5.6,0,9.4.45,11,1.13a8.24,8.24,0,0,1,4,3.29A11.16,11.16,0,0,1,175.37,41.23Z"
       transform="translate(-7.45 -17.3)"
       fill="#1d1d1b"
       id="path18"
       style="fill:#000000;fill-opacity:1" />
  </g>
  <metadata
     id="metadata18">
    <rdf:RDF>
      <cc:Work
         rdf:about="">
        <dc:title>PT_logo2020_Black CMYK</dc:title>
      </cc:Work>
    </rdf:RDF>
  </metadata>
</svg>
