<svg width="534" height="534" viewBox="0 0 534 534" fill="none" xmlns="http://www.w3.org/2000/svg">
<circle cx="267" cy="267" r="267" fill="#FF6C6C"/>
<path d="M165.806 472.383C88.7683 472.383 27.4354 331.474 20 233L385.604 233C378.168 331.474 316.835 472.383 239.797 472.383H202.802H165.806Z" fill="url(#paint0_linear_1_28)"/>
<circle cx="435.112" cy="311.888" r="56.3877" stroke="url(#paint1_linear_1_28)" stroke-width="45"/>
<path d="M89.5064 384.48C87.1384 384.48 85.4424 383.968 84.4184 382.944C83.3944 381.856 82.8824 379.84 82.8824 376.896C82.8824 374.912 83.0744 372.384 83.4584 369.312C83.9064 366.176 84.6104 361.888 85.5704 356.448C87.2344 346.4 88.5464 337.696 89.5064 330.336C90.0824 325.728 90.3704 321.888 90.3704 318.816C90.3704 315.936 89.3144 314.496 87.2024 314.496C85.5384 314.496 83.5224 315.36 81.1544 317.088C78.8504 318.752 76.2904 321.44 73.4744 325.152C72.5784 326.368 71.5864 326.976 70.4984 326.976C69.6024 326.976 68.8024 326.56 68.0984 325.728C67.4584 324.832 67.1384 323.84 67.1384 322.752C67.1384 321.728 67.3304 320.704 67.7144 319.68C68.1624 318.592 68.8664 317.376 69.8264 316.032C72.8984 311.744 76.3224 308.448 80.0984 306.144C83.8744 303.776 87.6504 302.592 91.4264 302.592C94.9464 302.592 97.6344 303.712 99.4904 305.952C101.41 308.192 102.37 311.456 102.37 315.744C102.37 317.472 102.21 319.52 101.89 321.888C101.57 324.192 101.282 326.08 101.026 327.552C100.77 329.024 100.578 330.048 100.45 330.624C104.098 320.192 108.194 312.928 112.738 308.832C117.282 304.672 122.274 302.592 127.714 302.592C131.874 302.592 135.138 304.064 137.506 307.008C139.938 309.952 141.154 314.112 141.154 319.488C141.154 321.6 140.866 324.224 140.29 327.36C143.49 318.528 147.234 312.192 151.522 308.352C155.81 304.512 160.738 302.592 166.306 302.592C170.786 302.592 174.21 304.032 176.578 306.912C179.01 309.792 180.226 313.824 180.226 319.008C180.226 321.824 179.81 325.248 178.978 329.28L173.122 356.736C172.482 359.936 172.162 362.688 172.162 364.992C172.162 367.68 172.77 369.696 173.986 371.04C175.266 372.384 177.026 373.056 179.266 373.056C181.378 373.056 183.426 372.352 185.41 370.944C187.458 369.536 189.858 367.2 192.61 363.936C193.378 363.04 194.242 362.592 195.202 362.592C196.034 362.592 196.674 362.976 197.122 363.744C197.634 364.512 197.89 365.568 197.89 366.912C197.89 369.408 197.282 371.392 196.066 372.864C192.738 376.896 189.442 379.84 186.178 381.696C182.914 383.552 179.49 384.48 175.906 384.48C170.466 384.48 166.21 382.88 163.138 379.68C160.066 376.416 158.53 372.064 158.53 366.624C158.53 362.848 159.298 357.376 160.834 350.208L164.674 332.64C164.802 332.064 165.026 331.04 165.346 329.568C165.666 328.096 165.922 326.72 166.114 325.44C166.306 324.096 166.402 322.784 166.402 321.504C166.402 319.264 165.954 317.6 165.058 316.512C164.226 315.36 163.01 314.784 161.41 314.784C158.402 314.784 155.234 316.736 151.906 320.64C148.642 324.48 145.506 330.88 142.498 339.84C139.554 348.8 137.154 360.448 135.298 374.784C134.85 378.624 134.05 381.216 132.898 382.56C131.81 383.84 130.018 384.48 127.522 384.48C125.346 384.48 123.746 383.968 122.722 382.944C121.762 381.92 121.282 380 121.282 377.184C121.282 374.56 121.634 371.136 122.338 366.912C123.042 362.624 123.938 357.6 125.026 351.84C127.97 336.352 129.442 326.368 129.442 321.888C129.442 319.456 128.962 317.664 128.002 316.512C127.106 315.36 125.73 314.784 123.874 314.784C120.738 314.784 117.506 316.576 114.178 320.16C110.85 323.68 107.586 329.984 104.386 339.072C101.25 348.096 98.6264 360.32 96.5144 375.744C96.0664 379.008 95.3944 381.28 94.4984 382.56C93.6664 383.84 92.0024 384.48 89.5064 384.48ZM214.029 384.48C211.213 384.48 209.069 383.712 207.597 382.176C206.189 380.64 205.485 378.624 205.485 376.128C205.485 373.248 206.285 370.944 207.885 369.216C209.549 367.488 211.853 366.624 214.797 366.624C217.613 366.624 219.725 367.328 221.133 368.736C222.605 370.08 223.341 372.096 223.341 374.784C223.341 377.728 222.509 380.096 220.845 381.888C219.181 383.616 216.909 384.48 214.029 384.48ZM269.535 384.48C261.919 384.48 255.295 383.104 249.663 380.352C244.031 377.536 239.711 373.568 236.703 368.448C233.695 363.328 232.191 357.376 232.191 350.592C232.191 341.184 233.951 332.832 237.471 325.536C241.055 318.24 245.887 312.608 251.967 308.64C258.047 304.608 264.799 302.592 272.223 302.592C279.135 302.592 284.383 304.384 287.967 307.968C291.551 311.488 293.343 316.16 293.343 321.984C293.343 325.888 292.639 329.024 291.231 331.392C289.887 333.76 287.935 334.944 285.375 334.944C283.583 334.944 282.175 334.528 281.151 333.696C280.127 332.864 279.615 331.648 279.615 330.048C279.615 329.472 279.743 328.416 279.999 326.88C280.383 324.96 280.575 323.424 280.575 322.272C280.575 316.448 277.471 313.536 271.263 313.536C267.039 313.536 263.007 314.912 259.167 317.664C255.327 320.416 252.223 324.48 249.855 329.856C247.487 335.168 246.303 341.504 246.303 348.864C246.303 356.544 248.447 362.496 252.735 366.72C257.023 370.88 263.359 372.96 271.743 372.96C275.903 372.96 280.095 372.448 284.319 371.424C288.607 370.336 293.343 368.704 298.527 366.528C299.487 366.144 300.287 365.952 300.927 365.952C301.951 365.952 302.719 366.336 303.231 367.104C303.743 367.872 303.999 368.864 303.999 370.08C303.999 373.984 301.887 376.864 297.663 378.72C293.119 380.704 288.383 382.176 283.455 383.136C278.591 384.032 273.951 384.48 269.535 384.48ZM320.341 384.48C317.525 384.48 315.381 383.712 313.909 382.176C312.501 380.64 311.797 378.624 311.797 376.128C311.797 373.248 312.597 370.944 314.197 369.216C315.861 367.488 318.165 366.624 321.109 366.624C323.925 366.624 326.037 367.328 327.445 368.736C328.917 370.08 329.653 372.096 329.653 374.784C329.653 377.728 328.821 380.096 327.157 381.888C325.493 383.616 323.221 384.48 320.341 384.48Z" fill="#FF6C6C"/>
<path d="M154 71C163.333 84.5 176.4 102.6 154 139C131.6 175.4 144.667 193.667 154 206" stroke="white" stroke-width="13"/>
<path d="M267.368 71C276.702 84.5 289.768 102.6 267.368 139C244.968 175.4 258.035 193.667 267.368 206" stroke="white" stroke-width="13"/>
<path d="M211.5 28C220.933 45.8 234.139 69.6652 211.5 117.659C188.861 165.653 202.067 189.738 211.5 206" stroke="white" stroke-width="13"/>
<defs>
<linearGradient id="paint0_linear_1_28" x1="202.802" y1="233" x2="202.802" y2="472.383" gradientUnits="userSpaceOnUse">
<stop stop-color="white"/>
<stop offset="1" stop-color="white"/>
</linearGradient>
<linearGradient id="paint1_linear_1_28" x1="435.112" y1="233" x2="435.112" y2="390.775" gradientUnits="userSpaceOnUse">
<stop stop-color="white"/>
<stop offset="1" stop-color="white"/>
</linearGradient>
</defs>
</svg>
